<svg version="1.1" id="Layer_1" xmlns="http://www.w3.org/2000/svg" xmlns:xlink="http://www.w3.org/1999/xlink" x="0px" y="0px"
	 width="100%" viewBox="0 0 339 278" enable-background="new 0 0 339 278" xml:space="preserve">
<path fill="#782323" opacity="1.000000" stroke="none" 
	d="
M238.000000,279.000000 
	C158.666702,279.000000 79.833412,279.000000 1.000085,279.000000 
	C1.000056,186.333420 1.000056,93.666832 1.000028,1.000184 
	C113.999870,1.000123 226.999741,1.000123 339.999695,1.000061 
	C339.999817,93.666481 339.999817,186.332962 339.999908,278.999725 
	C306.166656,279.000000 272.333344,279.000000 238.000000,279.000000 
M195.268478,258.425964 
	C194.264099,257.409515 193.163376,255.459549 192.273361,255.551376 
	C189.587997,255.828476 186.046890,256.141357 184.633438,257.890228 
	C183.411697,259.401947 183.662308,263.911102 185.046783,265.250702 
	C186.670410,266.821716 190.498489,267.309509 192.865585,266.594910 
	C195.447922,265.815308 197.315750,263.079041 195.151230,259.531525 
	C195.151230,259.531525 195.092117,259.202301 195.268478,258.425964 
M145.929169,89.955399 
	C146.674698,95.878052 147.420227,101.800713 147.513046,108.133347 
	C134.385895,112.936127 121.226700,117.654099 108.151306,122.593872 
	C104.277184,124.057472 101.215553,123.583519 98.062912,120.881477 
	C91.238182,115.032196 83.839394,109.804085 77.388390,103.582619 
	C72.106567,98.488747 67.287117,97.580391 60.632458,100.692978 
	C56.670010,102.546333 55.994659,103.631737 58.263176,107.392212 
	C65.037849,118.622459 71.457314,130.066986 78.042603,141.474792 
	C73.869209,145.880783 66.809013,145.604645 63.035610,151.435501 
	C64.544868,151.661102 65.170570,151.906784 65.744583,151.818069 
	C78.699974,149.815628 91.881905,148.698837 104.541870,145.511490 
	C120.461906,141.503357 135.953491,135.793823 151.631317,130.822815 
	C154.253525,129.991379 156.882736,129.182053 159.508728,128.362503 
	C159.867798,128.779831 160.226883,129.197159 160.585968,129.614487 
	C148.104553,147.196152 135.623138,164.777817 123.141731,182.359482 
	C123.612236,182.913132 124.082741,183.466782 124.553246,184.020447 
	C128.989120,181.074646 133.869812,178.620850 137.776016,175.089203 
	C148.753296,165.164474 159.329147,154.795761 170.599411,145.045883 
	C190.278259,162.558914 213.197128,168.645828 238.834671,163.415588 
	C278.435944,155.336716 304.068359,117.470245 298.064148,76.636978 
	C289.757660,20.146658 222.147751,-7.415769 176.664185,27.069328 
	C160.778885,39.113361 151.457123,55.126694 146.196243,74.322250 
	C135.115463,71.507736 124.073746,68.521324 112.928978,65.988297 
	C109.774612,65.271355 106.319260,65.878708 103.001953,65.878708 
	C102.981346,66.437332 102.960739,66.995964 102.940132,67.554588 
	C104.523148,68.411194 106.081474,69.317604 107.693092,70.116508 
	C120.450073,76.440323 133.217209,82.743668 145.929169,89.955399 
M41.592491,226.038773 
	C40.370277,224.726669 39.148064,223.414566 37.945957,222.124039 
	C44.851742,212.522400 42.343258,203.022232 32.009529,201.635452 
	C24.392612,200.613266 16.528267,201.434784 8.464607,201.434784 
	C8.464607,215.618759 8.464607,229.675842 8.464607,243.965149 
	C16.616489,243.965149 24.796087,244.662643 32.801037,243.778641 
	C41.680763,242.798035 45.185555,235.409378 41.592491,226.038773 
M94.246216,220.071152 
	C92.540268,208.056000 84.428169,200.679520 72.402328,200.208130 
	C60.446857,199.739502 50.968166,206.602615 48.862049,217.482635 
	C47.080978,226.683456 49.064335,234.922714 56.891590,240.618622 
	C64.994690,246.515274 74.008545,246.841949 82.873367,242.396652 
	C91.593033,238.024170 94.791840,230.338181 94.246216,220.071152 
M134.372116,224.763794 
	C140.214935,214.383926 135.981110,203.067520 125.025177,201.593567 
	C117.728325,200.611893 110.192398,201.407242 102.459930,201.407242 
	C102.459930,215.630753 102.459930,229.688004 102.459930,244.021317 
	C105.648026,244.021317 108.723549,244.021317 112.295105,244.021317 
	C112.295105,239.649155 112.295105,235.550690 112.295105,231.658752 
	C119.403297,228.855316 120.507614,234.508606 122.724075,238.232178 
	C126.675850,244.870987 129.498550,245.972641 137.110428,243.307190 
	C134.451096,238.730179 131.805252,234.176376 129.188995,229.673492 
	C130.975098,228.033127 132.431931,226.695175 134.372116,224.763794 
M177.814606,216.991882 
	C180.906525,216.991882 183.998459,216.991882 187.145264,216.991882 
	C185.068405,205.777054 174.479218,198.847382 162.255173,200.369232 
	C150.525665,201.829514 142.449402,211.838425 143.240311,223.934357 
	C144.070190,236.626099 152.711945,244.973480 165.230698,245.175644 
	C176.889023,245.363892 186.554214,237.899078 187.300430,227.942917 
	C182.566483,227.505844 178.258713,226.736694 174.761658,231.890167 
	C171.774612,236.292007 166.471466,236.529633 161.542847,234.972763 
	C157.014923,233.542480 154.516403,230.155289 153.726868,225.486725 
	C152.583878,218.728149 155.462265,212.776031 160.964081,210.568954 
	C167.079773,208.115631 173.011322,210.288605 177.814606,216.991882 
M330.012573,218.370224 
	C324.781647,218.370224 319.550720,218.370224 314.540863,218.370224 
	C314.540863,214.753342 314.540863,212.205673 314.540863,209.119537 
	C320.850403,209.119537 326.743530,209.119537 332.480164,209.119537 
	C332.480164,206.153625 332.480164,203.751968 332.480164,201.419098 
	C322.889008,201.419098 313.686951,201.419098 304.322815,201.419098 
	C304.322815,215.815933 304.322815,229.763687 304.322815,244.011337 
	C314.041077,244.011337 323.603302,244.011337 333.238708,244.011337 
	C333.238708,241.286041 333.238708,238.872604 333.238708,235.731110 
	C326.728485,235.731110 320.525421,235.731110 314.411804,235.731110 
	C314.411804,232.385132 314.411804,229.783371 314.411804,226.487915 
	C320.057129,226.487915 325.430756,226.487915 331.228210,226.487915 
	C331.042114,223.476944 330.900665,221.188446 330.012573,218.370224 
M195.819824,203.699524 
	C195.819824,217.124207 195.819824,230.548904 195.819824,244.002930 
	C205.832596,244.002930 215.248810,244.002930 224.664856,244.002930 
	C224.664856,241.275421 224.664856,238.852707 224.664856,235.861023 
	C218.309219,235.861023 212.236359,235.861023 206.040253,235.861023 
	C206.040253,232.536194 206.040253,229.795456 206.040253,226.380096 
	C211.707535,226.380096 217.083572,226.380096 222.293839,226.380096 
	C222.293839,223.288971 222.293839,220.906982 222.293839,218.070709 
	C216.612366,218.070709 211.356659,218.070709 206.165436,218.070709 
	C206.165436,214.895477 206.165436,212.204163 206.165436,209.129974 
	C212.375671,209.129974 218.152557,209.129974 223.999435,209.129974 
	C223.999435,206.304169 223.999435,203.877884 223.999435,201.007141 
	C215.087311,201.007141 206.461136,200.968872 197.836945,201.081894 
	C197.168106,201.090652 196.513184,202.160797 195.819824,203.699524 
M237.600311,200.979645 
	C235.540939,201.073578 233.111618,200.350571 233.131561,203.902802 
	C233.206161,217.182388 233.161392,230.462631 233.161392,244.021088 
	C242.920288,244.021088 252.310822,244.021088 261.752136,244.021088 
	C261.752136,241.009949 261.752136,238.269867 261.752136,234.996338 
	C255.544113,234.996338 249.641495,234.996338 243.086105,234.996338 
	C243.086105,223.443344 243.086105,212.415451 243.086105,201.233215 
	C241.128677,201.124359 239.827713,201.052017 237.600311,200.979645 
M268.816895,233.467163 
	C268.816895,236.937424 268.816895,240.407669 268.816895,243.959625 
	C278.610413,243.959625 288.000092,243.959625 297.296204,243.959625 
	C297.296204,240.878372 297.296204,238.146072 297.296204,234.908966 
	C290.998444,234.908966 285.094727,234.908966 278.579865,234.908966 
	C278.579865,223.371078 278.579865,212.336777 278.579865,201.315475 
	C275.039703,201.315475 272.131012,201.315475 268.816895,201.315475 
	C268.816895,211.920212 268.816895,222.199142 268.816895,233.467163 
M109.911797,255.200424 
	C107.983192,255.200424 106.054588,255.200424 104.137115,255.200424 
	C104.137115,259.499939 104.137115,263.361938 104.137115,267.223938 
	C104.475914,267.375549 104.814720,267.527130 105.153519,267.678741 
	C106.061707,266.500885 106.969894,265.322998 107.717697,264.353149 
	C109.262917,265.460114 110.775627,266.543793 112.207497,267.569550 
	C112.641922,264.851196 113.404922,262.878418 113.125923,261.066010 
	C112.822914,259.097595 111.550667,257.278351 109.911797,255.200424 
M210.091599,257.212219 
	C210.036926,266.091003 210.036926,266.091003 212.698685,267.103149 
	C213.044907,265.509521 213.386429,263.937561 213.773163,262.157379 
	C216.007446,264.328400 217.811310,266.081177 219.615158,267.833923 
	C220.024323,267.511017 220.433487,267.188110 220.842667,266.865204 
	C220.325821,262.974335 222.278397,258.713409 218.372177,255.221664 
	C218.075790,256.989380 217.779404,258.757080 217.367279,261.215118 
	C215.914413,259.323090 215.136765,257.748138 213.875687,256.858521 
	C212.980652,256.227173 211.433060,256.520905 210.091599,257.212219 
M223.868988,259.251099 
	C223.219269,263.366333 224.052322,266.733734 228.798203,267.444122 
	C232.186859,267.951294 234.942703,266.937592 235.855576,262.753998 
	C232.766266,261.694855 227.607956,268.394745 227.152084,261.606964 
	C226.615631,253.619537 233.140121,261.512665 235.671173,259.211609 
	C232.353439,253.547272 228.256287,253.367645 223.868988,259.251099 
M150.347961,255.161346 
	C148.089050,255.161346 145.830139,255.161346 143.317139,255.161346 
	C143.317139,259.432953 143.317139,263.156219 143.317139,267.468109 
	C146.247940,267.320892 148.869003,267.189209 151.490067,267.057556 
	C151.503357,266.564178 151.516647,266.070770 151.529922,265.577362 
	C149.858246,265.023743 148.186554,264.470123 145.346497,263.529572 
	C147.952469,262.731201 149.303299,262.317383 150.264816,262.022797 
	C150.520798,259.680267 150.744873,257.629730 150.347961,255.161346 
M202.421188,264.522308 
	C203.389053,263.388397 204.356918,262.254456 205.810272,260.551727 
	C205.941193,259.470428 206.181274,257.487427 206.439804,255.352280 
	C203.914963,255.352280 201.518173,255.352280 198.975525,255.352280 
	C198.975525,259.427002 198.975525,263.190979 198.975525,267.446320 
	C201.814911,267.316589 204.391388,267.198883 206.967880,267.081207 
	C207.012283,266.538940 207.056702,265.996674 207.101105,265.454407 
	C205.802917,265.221680 204.504730,264.988922 202.421188,264.522308 
M119.508743,256.996765 
	C118.247086,260.264923 116.985428,263.533112 115.911728,266.314423 
	C120.024330,266.314423 123.625847,266.314423 127.476440,266.314423 
	C126.344193,263.377686 125.311394,260.075714 123.734146,257.058380 
	C123.353142,256.329468 121.172035,256.541534 119.508743,256.996765 
M174.095062,255.560684 
	C172.541824,259.312286 170.988571,263.063873 169.644836,266.309448 
	C173.977295,266.309448 177.445816,266.309448 181.246841,266.309448 
	C180.637192,264.734650 180.114609,262.651886 179.069199,260.877014 
	C177.867859,258.837402 176.203720,257.070374 174.095062,255.560684 
M132.546631,264.812469 
	C133.904541,268.264679 135.582748,269.015564 137.328033,265.154602 
	C138.714493,262.087372 139.774002,258.872406 140.978683,255.723038 
	C140.388885,255.368164 139.799088,255.013306 139.209290,254.658447 
	C137.793793,256.874634 136.378296,259.090790 135.124161,261.054352 
	C133.483582,258.815155 132.023285,256.821991 130.562973,254.828812 
	C130.105042,255.177536 129.647095,255.526260 129.189163,255.874985 
	C130.201843,258.634644 131.214523,261.394318 132.546631,264.812469 
M246.184296,255.768784 
	C245.432480,256.782745 244.680664,257.796722 244.136551,258.530579 
	C242.378479,257.172943 240.890030,256.023529 239.401566,254.874084 
	C240.012405,259.222504 241.129974,262.624512 242.345016,265.991333 
	C242.533813,266.514435 243.270859,267.300140 243.575150,267.226257 
	C244.229904,267.067291 245.056000,266.549713 245.304504,265.963745 
	C246.451080,263.259888 247.555267,260.519501 248.353317,257.701202 
	C248.524231,257.097656 247.359344,256.115814 246.184296,255.768784 
M96.931938,266.923401 
	C98.478287,263.409332 95.016167,258.032410 102.280594,256.645142 
	C101.830124,256.319366 101.379646,255.993591 100.929176,255.667816 
	C97.504761,255.667816 94.080353,255.667816 91.989830,255.667816 
	C92.802574,259.128296 93.413261,262.191742 94.293671,265.175629 
	C94.536407,265.998291 95.583565,266.583588 96.931938,266.923401 
M154.776733,259.682098 
	C154.776733,262.118530 154.776733,264.554962 154.776733,266.871643 
	C157.878235,266.871643 160.376343,266.871643 162.874451,266.871643 
	C162.963898,266.449432 163.053345,266.027222 163.142792,265.605011 
	C161.485840,265.051819 159.828873,264.498627 158.148682,263.937683 
	C157.808456,260.974640 157.469803,258.025391 157.131149,255.076172 
	C156.533585,255.117447 155.936020,255.158722 155.338455,255.199997 
	C155.151367,256.392273 154.964264,257.584534 154.776733,259.682098 
z"/>
<path fill="#F66202" opacity="1.000000" stroke="none" 
	d="
M147.024902,74.284363 
	C151.457123,55.126694 160.778885,39.113361 176.664185,27.069328 
	C222.147751,-7.415769 289.757660,20.146658 298.064148,76.636978 
	C304.068359,117.470245 278.435944,155.336716 238.834671,163.415588 
	C213.197128,168.645828 190.278259,162.558914 170.458557,144.548523 
	C175.884964,138.795380 181.376907,133.454941 187.093231,128.366592 
	C188.052551,127.512657 190.022247,127.390907 191.458588,127.546188 
	C197.345093,128.182556 203.181183,129.608154 208.908737,126.511162 
	C210.916779,125.425369 213.294189,124.926468 215.563004,124.439232 
	C220.269531,123.428482 220.795151,120.718460 219.297073,116.665779 
	C217.912109,112.919029 216.687256,109.706093 211.619141,112.236580 
	C209.102295,113.493233 206.245987,114.069992 203.543243,114.954330 
	C203.316223,114.313538 203.089203,113.672737 202.862167,113.031937 
	C205.446060,111.748131 207.941757,110.229454 210.628860,109.220490 
	C223.399933,104.425148 236.333237,100.042839 248.987778,94.962959 
	C256.973755,91.757172 264.759705,87.919647 272.269165,83.711937 
	C276.547729,81.314560 276.116760,77.387115 271.599823,76.086426 
	C260.998901,73.033775 250.198456,70.685684 239.250793,74.579742 
	C228.276901,78.483116 217.381775,82.607727 206.413452,86.527100 
	C204.424118,87.237953 202.061539,88.193756 200.187546,87.737495 
	C182.427612,83.413528 164.736115,78.808479 147.024902,74.284363 
z"/>
<path fill="#FDF5F3" opacity="1.000000" stroke="none" 
	d="
M146.610565,74.303307 
	C164.736115,78.808479 182.427612,83.413528 200.187546,87.737495 
	C202.061539,88.193756 204.424118,87.237953 206.413452,86.527100 
	C217.381775,82.607727 228.276901,78.483116 239.250793,74.579742 
	C250.198456,70.685684 260.998901,73.033775 271.599823,76.086426 
	C276.116760,77.387115 276.547729,81.314560 272.269165,83.711937 
	C264.759705,87.919647 256.973755,91.757172 248.987778,94.962959 
	C236.333237,100.042839 223.399933,104.425148 210.628860,109.220490 
	C207.941757,110.229454 205.446060,111.748131 202.862167,113.031937 
	C203.089203,113.672737 203.316223,114.313538 203.543243,114.954330 
	C206.245987,114.069992 209.102295,113.493233 211.619141,112.236580 
	C216.687256,109.706093 217.912109,112.919029 219.297073,116.665779 
	C220.795151,120.718460 220.269531,123.428482 215.563004,124.439232 
	C213.294189,124.926468 210.916779,125.425369 208.908737,126.511162 
	C203.181183,129.608154 197.345093,128.182556 191.458588,127.546188 
	C190.022247,127.390907 188.052551,127.512657 187.093231,128.366592 
	C181.376907,133.454941 175.884964,138.795380 170.190506,144.326660 
	C159.329147,154.795761 148.753296,165.164474 137.776016,175.089203 
	C133.869812,178.620850 128.989120,181.074646 124.553246,184.020447 
	C124.082741,183.466782 123.612236,182.913132 123.141731,182.359482 
	C135.623138,164.777817 148.104553,147.196152 160.585968,129.614487 
	C160.226883,129.197159 159.867798,128.779831 159.508728,128.362503 
	C156.882736,129.182053 154.253525,129.991379 151.631317,130.822815 
	C135.953491,135.793823 120.461906,141.503357 104.541870,145.511490 
	C91.881905,148.698837 78.699974,149.815628 65.744583,151.818069 
	C65.170570,151.906784 64.544868,151.661102 63.035610,151.435501 
	C66.809013,145.604645 73.869209,145.880783 78.042603,141.474792 
	C71.457314,130.066986 65.037849,118.622459 58.263176,107.392212 
	C55.994659,103.631737 56.670010,102.546333 60.632458,100.692978 
	C67.287117,97.580391 72.106567,98.488747 77.388390,103.582619 
	C83.839394,109.804085 91.238182,115.032196 98.062912,120.881477 
	C101.215553,123.583519 104.277184,124.057472 108.151306,122.593872 
	C121.226700,117.654099 134.385895,112.936127 148.189758,107.914871 
	C155.155350,105.320808 161.444199,102.945229 167.733063,100.569649 
	C167.764847,100.127113 167.796631,99.684586 167.828400,99.242058 
	C160.546021,95.845802 153.263626,92.449554 145.981232,89.053299 
	C133.217209,82.743668 120.450073,76.440323 107.693092,70.116508 
	C106.081474,69.317604 104.523148,68.411194 102.940132,67.554588 
	C102.960739,66.995964 102.981346,66.437332 103.001953,65.878708 
	C106.319260,65.878708 109.774612,65.271355 112.928978,65.988297 
	C124.073746,68.521324 135.115463,71.507736 146.610565,74.303307 
z"/>
<path fill="#F9F0EF" opacity="1.000000" stroke="none" 
	d="
M41.772110,226.368164 
	C45.185555,235.409378 41.680763,242.798035 32.801037,243.778641 
	C24.796087,244.662643 16.616489,243.965149 8.464607,243.965149 
	C8.464607,229.675842 8.464607,215.618759 8.464607,201.434784 
	C16.528267,201.434784 24.392612,200.613266 32.009529,201.635452 
	C42.343258,203.022232 44.851742,212.522400 37.945957,222.124039 
	C39.148064,223.414566 40.370277,224.726669 41.772110,226.368164 
M28.947824,236.205338 
	C32.031590,235.486084 34.011116,233.290131 32.773903,230.508102 
	C31.927410,228.604675 29.232500,226.929489 27.050045,226.364212 
	C24.321802,225.657562 21.271484,226.194382 18.351479,226.194382 
	C18.351479,229.966431 18.351479,233.022858 18.351479,236.328018 
	C21.810560,236.328018 24.934309,236.328018 28.947824,236.205338 
M31.067757,216.498260 
	C34.492825,210.239822 28.140570,207.336014 18.318733,209.618988 
	C18.318733,212.439957 18.318733,215.295013 18.318733,219.279953 
	C22.717319,218.499405 26.632536,217.804626 31.067757,216.498260 
z"/>
<path fill="#F9F0EF" opacity="1.000000" stroke="none" 
	d="
M94.294312,220.479492 
	C94.791840,230.338181 91.593033,238.024170 82.873367,242.396652 
	C74.008545,246.841949 64.994690,246.515274 56.891590,240.618622 
	C49.064335,234.922714 47.080978,226.683456 48.862049,217.482635 
	C50.968166,206.602615 60.446857,199.739502 72.402328,200.208130 
	C84.428169,200.679520 92.540268,208.056000 94.294312,220.479492 
M69.070351,235.546082 
	C70.227524,235.586075 71.396599,235.752853 72.539948,235.645569 
	C80.158897,234.930542 84.569283,229.589951 84.141075,221.676178 
	C83.745621,214.367905 78.435814,209.514023 70.998146,209.661758 
	C64.376221,209.793289 59.623020,213.906387 58.645451,220.350998 
	C57.497681,227.917633 60.721420,232.947159 69.070351,235.546082 
z"/>
<path fill="#F9F0EF" opacity="1.000000" stroke="none" 
	d="
M134.130432,225.060516 
	C132.431931,226.695175 130.975098,228.033127 129.188995,229.673492 
	C131.805252,234.176376 134.451096,238.730179 137.110428,243.307190 
	C129.498550,245.972641 126.675850,244.870987 122.724075,238.232178 
	C120.507614,234.508606 119.403297,228.855316 112.295105,231.658752 
	C112.295105,235.550690 112.295105,239.649155 112.295105,244.021317 
	C108.723549,244.021317 105.648026,244.021317 102.459930,244.021317 
	C102.459930,229.688004 102.459930,215.630753 102.459930,201.407242 
	C110.192398,201.407242 117.728325,200.611893 125.025177,201.593567 
	C135.981110,203.067520 140.214935,214.383926 134.130432,225.060516 
M112.011421,218.259476 
	C112.684914,219.656433 113.202019,222.126770 114.060822,222.251892 
	C116.787193,222.649124 119.953903,222.876312 122.348259,221.813171 
	C124.324898,220.935471 126.723160,218.055252 126.612488,216.200989 
	C126.483818,214.045319 124.227913,211.053009 122.165260,210.210052 
	C119.316307,209.045746 115.784981,209.551147 112.011261,209.306808 
	C112.011261,212.467056 112.011261,214.912048 112.011421,218.259476 
z"/>
<path fill="#F8EFEE" opacity="1.000000" stroke="none" 
	d="
M177.511078,216.755737 
	C173.011322,210.288605 167.079773,208.115631 160.964081,210.568954 
	C155.462265,212.776031 152.583878,218.728149 153.726868,225.486725 
	C154.516403,230.155289 157.014923,233.542480 161.542847,234.972763 
	C166.471466,236.529633 171.774612,236.292007 174.761658,231.890167 
	C178.258713,226.736694 182.566483,227.505844 187.300430,227.942917 
	C186.554214,237.899078 176.889023,245.363892 165.230698,245.175644 
	C152.711945,244.973480 144.070190,236.626099 143.240311,223.934357 
	C142.449402,211.838425 150.525665,201.829514 162.255173,200.369232 
	C174.479218,198.847382 185.068405,205.777054 187.145264,216.991882 
	C183.998459,216.991882 180.906525,216.991882 177.511078,216.755737 
z"/>
<path fill="#F8EEEE" opacity="1.000000" stroke="none" 
	d="
M330.385895,218.635101 
	C330.900665,221.188446 331.042114,223.476944 331.228210,226.487915 
	C325.430756,226.487915 320.057129,226.487915 314.411804,226.487915 
	C314.411804,229.783371 314.411804,232.385132 314.411804,235.731110 
	C320.525421,235.731110 326.728485,235.731110 333.238708,235.731110 
	C333.238708,238.872604 333.238708,241.286041 333.238708,244.011337 
	C323.603302,244.011337 314.041077,244.011337 304.322815,244.011337 
	C304.322815,229.763687 304.322815,215.815933 304.322815,201.419098 
	C313.686951,201.419098 322.889008,201.419098 332.480164,201.419098 
	C332.480164,203.751968 332.480164,206.153625 332.480164,209.119537 
	C326.743530,209.119537 320.850403,209.119537 314.540863,209.119537 
	C314.540863,212.205673 314.540863,214.753342 314.540863,218.370224 
	C319.550720,218.370224 324.781647,218.370224 330.385895,218.635101 
z"/>
<path fill="#F9F1F0" opacity="1.000000" stroke="none" 
	d="
M195.835815,203.218582 
	C196.513184,202.160797 197.168106,201.090652 197.836945,201.081894 
	C206.461136,200.968872 215.087311,201.007141 223.999435,201.007141 
	C223.999435,203.877884 223.999435,206.304169 223.999435,209.129974 
	C218.152557,209.129974 212.375671,209.129974 206.165436,209.129974 
	C206.165436,212.204163 206.165436,214.895477 206.165436,218.070709 
	C211.356659,218.070709 216.612366,218.070709 222.293839,218.070709 
	C222.293839,220.906982 222.293839,223.288971 222.293839,226.380096 
	C217.083572,226.380096 211.707535,226.380096 206.040253,226.380096 
	C206.040253,229.795456 206.040253,232.536194 206.040253,235.861023 
	C212.236359,235.861023 218.309219,235.861023 224.664856,235.861023 
	C224.664856,238.852707 224.664856,241.275421 224.664856,244.002930 
	C215.248810,244.002930 205.832596,244.002930 195.819824,244.002930 
	C195.819824,230.548904 195.819824,217.124207 195.835815,203.218582 
z"/>
<path fill="#F9F1F0" opacity="1.000000" stroke="none" 
	d="
M238.063538,200.979660 
	C239.827713,201.052017 241.128677,201.124359 243.086105,201.233215 
	C243.086105,212.415451 243.086105,223.443344 243.086105,234.996338 
	C249.641495,234.996338 255.544113,234.996338 261.752136,234.996338 
	C261.752136,238.269867 261.752136,241.009949 261.752136,244.021088 
	C252.310822,244.021088 242.920288,244.021088 233.161392,244.021088 
	C233.161392,230.462631 233.206161,217.182388 233.131561,203.902802 
	C233.111618,200.350571 235.540939,201.073578 238.063538,200.979660 
z"/>
<path fill="#FAF2F1" opacity="1.000000" stroke="none" 
	d="
M268.816895,232.972626 
	C268.816895,222.199142 268.816895,211.920212 268.816895,201.315475 
	C272.131012,201.315475 275.039703,201.315475 278.579865,201.315475 
	C278.579865,212.336777 278.579865,223.371078 278.579865,234.908966 
	C285.094727,234.908966 290.998444,234.908966 297.296204,234.908966 
	C297.296204,238.146072 297.296204,240.878372 297.296204,243.959625 
	C288.000092,243.959625 278.610413,243.959625 268.816895,243.959625 
	C268.816895,240.407669 268.816895,236.937424 268.816895,232.972626 
z"/>
<path fill="#F6680D" opacity="1.000000" stroke="none" 
	d="
M145.955200,89.504349 
	C153.263626,92.449554 160.546021,95.845802 167.828400,99.242058 
	C167.796631,99.684586 167.764847,100.127113 167.733063,100.569649 
	C161.444199,102.945229 155.155350,105.320808 148.516113,107.709885 
	C147.420227,101.800713 146.674698,95.878052 145.955200,89.504349 
z"/>
<path fill="#E9D7D6" opacity="1.000000" stroke="none" 
	d="
M110.306427,255.297241 
	C111.550667,257.278351 112.822914,259.097595 113.125923,261.066010 
	C113.404922,262.878418 112.641922,264.851196 112.207497,267.569550 
	C110.775627,266.543793 109.262917,265.460114 107.717697,264.353149 
	C106.969894,265.322998 106.061707,266.500885 105.153519,267.678741 
	C104.814720,267.527130 104.475914,267.375549 104.137115,267.223938 
	C104.137115,263.361938 104.137115,259.499939 104.137115,255.200424 
	C106.054588,255.200424 107.983192,255.200424 110.306427,255.297241 
z"/>
<path fill="#E6D1D1" opacity="1.000000" stroke="none" 
	d="
M195.054962,259.851837 
	C197.315750,263.079041 195.447922,265.815308 192.865585,266.594910 
	C190.498489,267.309509 186.670410,266.821716 185.046783,265.250702 
	C183.662308,263.911102 183.411697,259.401947 184.633438,257.890228 
	C186.046890,256.141357 189.587997,255.828476 192.273361,255.551376 
	C193.163376,255.459549 194.264099,257.409515 194.767090,258.788391 
	C192.690674,258.691315 191.063644,257.760559 189.557648,257.926697 
	C188.425720,258.051605 186.985031,259.409485 186.554565,260.548370 
	C186.227081,261.414795 186.958664,263.254822 187.791962,263.826324 
	C188.634369,264.404053 190.181854,263.953674 192.023956,263.953674 
	C190.704254,262.840851 189.947083,262.202362 188.557068,261.030243 
	C191.252457,260.541443 193.153717,260.196655 195.054962,259.851837 
z"/>
<path fill="#EAD8D8" opacity="1.000000" stroke="none" 
	d="
M210.134155,256.806976 
	C211.433060,256.520905 212.980652,256.227173 213.875687,256.858521 
	C215.136765,257.748138 215.914413,259.323090 217.367279,261.215118 
	C217.779404,258.757080 218.075790,256.989380 218.372177,255.221664 
	C222.278397,258.713409 220.325821,262.974335 220.842667,266.865204 
	C220.433487,267.188110 220.024323,267.511017 219.615158,267.833923 
	C217.811310,266.081177 216.007446,264.328400 213.773163,262.157379 
	C213.386429,263.937561 213.044907,265.509521 212.698685,267.103149 
	C210.036926,266.091003 210.036926,266.091003 210.134155,256.806976 
z"/>
<path fill="#E5D0D0" opacity="1.000000" stroke="none" 
	d="
M223.970245,258.893066 
	C228.256287,253.367645 232.353439,253.547272 235.671173,259.211609 
	C233.140121,261.512665 226.615631,253.619537 227.152084,261.606964 
	C227.607956,268.394745 232.766266,261.694855 235.855576,262.753998 
	C234.942703,266.937592 232.186859,267.951294 228.798203,267.444122 
	C224.052322,266.733734 223.219269,263.366333 223.970245,258.893066 
z"/>
<path fill="#E4D0CF" opacity="1.000000" stroke="none" 
	d="
M150.658447,255.370270 
	C150.744873,257.629730 150.520798,259.680267 150.264816,262.022797 
	C149.303299,262.317383 147.952469,262.731201 145.346497,263.529572 
	C148.186554,264.470123 149.858246,265.023743 151.529922,265.577362 
	C151.516647,266.070770 151.503357,266.564178 151.490067,267.057556 
	C148.869003,267.189209 146.247940,267.320892 143.317139,267.468109 
	C143.317139,263.156219 143.317139,259.432953 143.317139,255.161346 
	C145.830139,255.161346 148.089050,255.161346 150.658447,255.370270 
z"/>
<path fill="#E9D6D6" opacity="1.000000" stroke="none" 
	d="
M202.813873,264.639221 
	C204.504730,264.988922 205.802917,265.221680 207.101105,265.454407 
	C207.056702,265.996674 207.012283,266.538940 206.967880,267.081207 
	C204.391388,267.198883 201.814911,267.316589 198.975525,267.446320 
	C198.975525,263.190979 198.975525,259.427002 198.975525,255.352280 
	C201.518173,255.352280 203.914963,255.352280 206.439804,255.352280 
	C206.181274,257.487427 205.941193,259.470428 205.810272,260.551727 
	C204.356918,262.254456 203.389053,263.388397 202.813873,264.639221 
z"/>
<path fill="#ECDCDB" opacity="1.000000" stroke="none" 
	d="
M119.663727,256.658813 
	C121.172035,256.541534 123.353142,256.329468 123.734146,257.058380 
	C125.311394,260.075714 126.344193,263.377686 127.476440,266.314423 
	C123.625847,266.314423 120.024330,266.314423 115.911728,266.314423 
	C116.985428,263.533112 118.247086,260.264923 119.663727,256.658813 
z"/>
<path fill="#EDDEDD" opacity="1.000000" stroke="none" 
	d="
M174.417831,255.372818 
	C176.203720,257.070374 177.867859,258.837402 179.069199,260.877014 
	C180.114609,262.651886 180.637192,264.734650 181.246841,266.309448 
	C177.445816,266.309448 173.977295,266.309448 169.644836,266.309448 
	C170.988571,263.063873 172.541824,259.312286 174.417831,255.372818 
z"/>
<path fill="#E8D5D4" opacity="1.000000" stroke="none" 
	d="
M132.386917,264.483215 
	C131.214523,261.394318 130.201843,258.634644 129.189163,255.874985 
	C129.647095,255.526260 130.105042,255.177536 130.562973,254.828812 
	C132.023285,256.821991 133.483582,258.815155 135.124161,261.054352 
	C136.378296,259.090790 137.793793,256.874634 139.209290,254.658447 
	C139.799088,255.013306 140.388885,255.368164 140.978683,255.723038 
	C139.774002,258.872406 138.714493,262.087372 137.328033,265.154602 
	C135.582748,269.015564 133.904541,268.264679 132.386917,264.483215 
z"/>
<path fill="#E6D2D1" opacity="1.000000" stroke="none" 
	d="
M246.497055,255.538528 
	C247.359344,256.115814 248.524231,257.097656 248.353317,257.701202 
	C247.555267,260.519501 246.451080,263.259888 245.304504,265.963745 
	C245.056000,266.549713 244.229904,267.067291 243.575150,267.226257 
	C243.270859,267.300140 242.533813,266.514435 242.345016,265.991333 
	C241.129974,262.624512 240.012405,259.222504 239.401566,254.874084 
	C240.890030,256.023529 242.378479,257.172943 244.136551,258.530579 
	C244.680664,257.796722 245.432480,256.782745 246.497055,255.538528 
z"/>
<path fill="#E5D1D0" opacity="1.000000" stroke="none" 
	d="
M96.596779,267.100586 
	C95.583565,266.583588 94.536407,265.998291 94.293671,265.175629 
	C93.413261,262.191742 92.802574,259.128296 91.989830,255.667816 
	C94.080353,255.667816 97.504761,255.667816 100.929176,255.667816 
	C101.379646,255.993591 101.830124,256.319366 102.280594,256.645142 
	C95.016167,258.032410 98.478287,263.409332 96.596779,267.100586 
z"/>
<path fill="#EFE0DF" opacity="1.000000" stroke="none" 
	d="
M154.776947,259.229431 
	C154.964264,257.584534 155.151367,256.392273 155.338455,255.199997 
	C155.936020,255.158722 156.533585,255.117447 157.131149,255.076172 
	C157.469803,258.025391 157.808456,260.974640 158.148682,263.937683 
	C159.828873,264.498627 161.485840,265.051819 163.142792,265.605011 
	C163.053345,266.027222 162.963898,266.449432 162.874451,266.871643 
	C160.376343,266.871643 157.878235,266.871643 154.776733,266.871643 
	C154.776733,264.554962 154.776733,262.118530 154.776947,259.229431 
z"/>
<path fill="#914A4A" opacity="1.000000" stroke="none" 
	d="
M195.103088,259.691681 
	C193.153717,260.196655 191.252457,260.541443 188.557068,261.030243 
	C189.947083,262.202362 190.704254,262.840851 192.023956,263.953674 
	C190.181854,263.953674 188.634369,264.404053 187.791962,263.826324 
	C186.958664,263.254822 186.227081,261.414795 186.554565,260.548370 
	C186.985031,259.409485 188.425720,258.051605 189.557648,257.926697 
	C191.063644,257.760559 192.690674,258.691315 194.678925,259.176575 
	C195.092117,259.202301 195.151230,259.531525 195.103088,259.691681 
z"/>
<path fill="#7E2D2D" opacity="1.000000" stroke="none" 
	d="
M28.502941,236.266678 
	C24.934309,236.328018 21.810560,236.328018 18.351479,236.328018 
	C18.351479,233.022858 18.351479,229.966431 18.351479,226.194382 
	C21.271484,226.194382 24.321802,225.657562 27.050045,226.364212 
	C29.232500,226.929489 31.927410,228.604675 32.773903,230.508102 
	C34.011116,233.290131 32.031590,235.486084 28.502941,236.266678 
z"/>
<path fill="#813232" opacity="1.000000" stroke="none" 
	d="
M30.807755,216.804062 
	C26.632536,217.804626 22.717319,218.499405 18.318733,219.279953 
	C18.318733,215.295013 18.318733,212.439957 18.318733,209.618988 
	C28.140570,207.336014 34.492825,210.239822 30.807755,216.804062 
z"/>
<path fill="#7B2827" opacity="1.000000" stroke="none" 
	d="
M68.682434,235.475525 
	C60.721420,232.947159 57.497681,227.917633 58.645451,220.350998 
	C59.623020,213.906387 64.376221,209.793289 70.998146,209.661758 
	C78.435814,209.514023 83.745621,214.367905 84.141075,221.676178 
	C84.569283,229.589951 80.158897,234.930542 72.539948,235.645569 
	C71.396599,235.752853 70.227524,235.586075 68.682434,235.475525 
z"/>
<path fill="#7F2E2D" opacity="1.000000" stroke="none" 
	d="
M112.011337,217.808258 
	C112.011261,214.912048 112.011261,212.467056 112.011261,209.306808 
	C115.784981,209.551147 119.316307,209.045746 122.165260,210.210052 
	C124.227913,211.053009 126.483818,214.045319 126.612488,216.200989 
	C126.723160,218.055252 124.324898,220.935471 122.348259,221.813171 
	C119.953903,222.876312 116.787193,222.649124 114.060822,222.251892 
	C113.202019,222.126770 112.684914,219.656433 112.011337,217.808258 
z"/>
</svg>